<svg xmlns="http://www.w3.org/2000/svg" viewBox="0 0 27.048 27.048">
  <defs>
    <style>
      .cls-1 {
        fill: #fff;
      }
    </style>
  </defs>
  <path id="Path_670" data-name="Path 670" class="cls-1" d="M4.057,4.057A12.278,12.278,0,0,1,13.524,0a12.278,12.278,0,0,1,9.467,4.057,12.278,12.278,0,0,1,4.057,9.467,12.278,12.278,0,0,1-4.057,9.467,12.278,12.278,0,0,1-9.467,4.057,12.278,12.278,0,0,1-9.467-4.057C1.578,20.286,0,17.356,0,13.524A12.278,12.278,0,0,1,4.057,4.057ZM19.61,19.61l1.578-1.578L15.553,12.4,13.524,3.381H11.27V13.524a2.046,2.046,0,0,0,.676,1.578.787.787,0,0,0,.451.225Z"/>
</svg>
